<svg xmlns="http://www.w3.org/2000/svg" xmlns:xlink="http://www.w3.org/1999/xlink" width="500" zoomAndPan="magnify" viewBox="0 0 375 374.999991" height="500" preserveAspectRatio="xMidYMid meet" version="1.0"><defs><g/><clipPath id="ca0bd49532"><path d="M 171 188 L 204 188 L 204 218.28125 L 171 218.28125 Z M 171 188 " clip-rule="nonzero"/></clipPath><clipPath id="f13b164109"><path d="M 151.367188 159 L 168 159 L 168 172 L 151.367188 172 Z M 151.367188 159 " clip-rule="nonzero"/></clipPath><clipPath id="995d143cd7"><path d="M 153 88.53125 L 187 88.53125 L 187 125 L 153 125 Z M 153 88.53125 " clip-rule="nonzero"/></clipPath><clipPath id="92e83818b8"><path d="M 186 88.53125 L 221 88.53125 L 221 125 L 186 125 Z M 186 88.53125 " clip-rule="nonzero"/></clipPath></defs><path fill="#5b5b5b" d="M 197.738281 168.488281 C 195.757812 169.824219 192.875 170.523438 190.914062 172.40625 C 189.015625 174.226562 187.976562 177.148438 189.433594 182.8125 C 189.433594 182.8125 190.695312 182.949219 192.554688 183.4375 C 194.136719 183.855469 196.148438 184.527344 198.191406 185.585938 C 199.5625 186.300781 200.953125 187.1875 202.230469 188.292969 L 209.519531 180.691406 C 209.519531 180.691406 210.859375 173.550781 207.785156 167.675781 C 207.316406 166.777344 206.742188 165.910156 206.046875 165.097656 L 206.054688 165.097656 C 206.238281 165.097656 209.691406 165.179688 212.738281 171.03125 C 212.738281 171.03125 216.636719 163.148438 222.230469 162.046875 C 222.230469 162.046875 222.3125 161.789062 222.417969 161.355469 C 222.824219 159.6875 223.621094 155.417969 221.808594 153.0625 C 221.039062 152.066406 220.46875 150.953125 220.078125 149.824219 C 219.300781 147.597656 219.210938 145.316406 219.605469 143.742188 C 219.605469 143.742188 219.480469 142.734375 218.851562 141.246094 C 218.238281 139.789062 217.140625 137.871094 215.203125 135.984375 C 213.472656 134.300781 211.070312 132.644531 207.738281 131.371094 L 211.808594 129.25 C 211.808594 129.25 211.253906 128.761719 210.222656 128.164062 C 208.609375 127.230469 205.824219 126.027344 202.160156 126.027344 C 198.042969 126.027344 192.816406 127.542969 186.890625 132.640625 L 186.890625 165.269531 C 191.890625 164.675781 197.144531 162.046875 197.144531 162.046875 C 197.144531 162.046875 201.636719 165.863281 197.738281 168.488281 Z M 191.097656 147.664062 C 191.085938 147.59375 191.074219 147.519531 191.066406 147.449219 C 191.066406 147.449219 198.382812 151.863281 203.855469 145.917969 C 205.011719 144.664062 206.527344 143.78125 208.210938 143.496094 C 210.921875 143.035156 214.566406 143.550781 216.109375 148.855469 L 212.421875 148.855469 C 212.421875 148.855469 209.625 156.792969 203.207031 156.285156 L 203.90625 160.417969 C 203.90625 160.417969 199.453125 157.746094 198.503906 153.171875 C 198.503906 153.171875 192.050781 153.417969 191.097656 147.664062 Z M 191.097656 147.664062 " fill-opacity="1" fill-rule="nonzero"/><g clip-path="url(#ca0bd49532)"><path fill="#5b5b5b" d="M 198.925781 197.886719 C 199.507812 199.949219 202.289062 202.152344 203.40625 203.980469 C 202.242188 206.734375 200.734375 209.238281 198.796875 211.519531 C 198.804688 208.628906 198.089844 206.167969 196.597656 203.695312 C 196.519531 206.523438 195.570312 209.320312 193.90625 211.605469 C 192.972656 212.898438 191.824219 214.019531 190.683594 215.132812 C 189.570312 216.21875 188.460938 217.304688 187.347656 218.390625 C 186.238281 217.304688 185.125 216.222656 184.015625 215.132812 C 182.871094 214.019531 181.726562 212.898438 180.789062 211.605469 C 179.128906 209.320312 178.175781 206.523438 178.097656 203.695312 C 176.605469 206.167969 175.890625 208.632812 175.898438 211.519531 C 174.871094 210.308594 173.964844 209.035156 173.167969 207.695312 C 172.457031 206.511719 171.835938 205.273438 171.289062 203.980469 C 172.371094 202.207031 174.554688 200.097656 175.21875 198.09375 C 175.242188 198.027344 175.261719 197.960938 175.28125 197.898438 L 173.382812 199.621094 L 171.183594 201.617188 C 171.277344 201.449219 171.367188 201.28125 171.457031 201.109375 C 172.390625 199.320312 173.085938 197.40625 173.523438 195.433594 C 173.714844 194.578125 173.855469 193.710938 173.945312 192.839844 C 175.941406 191.429688 178.632812 190.1875 181.363281 189.273438 C 185.246094 187.96875 189.449219 187.96875 193.332031 189.273438 C 196.0625 190.1875 198.75 191.429688 200.75 192.839844 C 201.066406 195.910156 202.011719 198.917969 203.511719 201.617188 Z M 198.925781 197.886719 " fill-opacity="1" fill-rule="nonzero"/></g><path fill="#404040" d="M 182.6875 147.664062 C 182.699219 147.59375 182.707031 147.519531 182.71875 147.449219 C 182.71875 147.449219 175.402344 151.863281 169.929688 145.917969 C 168.769531 144.664062 167.257812 143.78125 165.574219 143.496094 C 162.863281 143.035156 159.21875 143.550781 157.675781 148.855469 L 161.359375 148.855469 C 158.390625 148.941406 155.753906 149.363281 153.707031 149.820312 C 154.480469 147.597656 154.574219 145.316406 154.179688 143.742188 C 154.179688 143.742188 154.304688 142.734375 154.933594 141.246094 C 163.65625 134.753906 169.808594 141.367188 170.199219 141.367188 C 181.355469 141.367188 183.503906 144.929688 183.503906 144.929688 C 183.296875 146.101562 183 146.992188 182.6875 147.664062 Z M 182.6875 147.664062 " fill-opacity="1" fill-rule="nonzero"/><g clip-path="url(#f13b164109)"><path fill="#404040" d="M 167.730469 165.097656 C 167.546875 165.097656 164.09375 165.175781 161.042969 171.03125 C 161.042969 171.03125 157.144531 163.148438 151.550781 162.046875 C 151.550781 162.046875 151.472656 161.789062 151.367188 161.355469 C 152.386719 160.105469 154.097656 159.003906 156.910156 159.269531 C 156.914062 159.269531 162.351562 164.941406 167.730469 165.097656 Z M 167.730469 165.097656 " fill-opacity="1" fill-rule="nonzero"/></g><path fill="#231f20" d="M 167.738281 165.097656 L 166 167.675781 C 166.46875 166.777344 167.042969 165.910156 167.738281 165.097656 Z M 167.738281 165.097656 " fill-opacity="1" fill-rule="nonzero"/><path fill="#404040" d="M 184.351562 182.8125 C 184.351562 182.8125 183.089844 182.949219 181.226562 183.4375 C 177.953125 182.015625 173.9375 182.34375 170.621094 183.742188 C 170.621094 183.742188 173.671875 180.015625 179.941406 180.183594 C 179.941406 180.183594 177.148438 177.21875 170.625 179.25 C 170.75 179.164062 175.511719 175.234375 179.519531 175.648438 C 179.519531 175.648438 173.289062 173.445312 168.082031 175.183594 C 168.234375 175.058594 174.292969 170.222656 182.871094 172.40625 C 184.769531 174.226562 185.808594 177.148438 184.351562 182.8125 Z M 184.351562 182.8125 " fill-opacity="1" fill-rule="nonzero"/><path fill="#404040" d="M 179.605469 134.039062 C 170.191406 130.386719 162.402344 133.683594 158.582031 135.984375 C 160.3125 134.300781 162.714844 132.640625 166.042969 131.367188 L 161.976562 129.25 C 161.976562 129.25 162.53125 128.761719 163.558594 128.160156 C 174.59375 127.367188 179.605469 134.039062 179.605469 134.039062 Z M 179.605469 134.039062 " fill-opacity="1" fill-rule="nonzero"/><path fill="#ff914d" d="M 165.621094 147.449219 C 165.621094 147.449219 164.347656 150.324219 167.273438 151.890625 C 170.195312 153.457031 172.582031 152.058594 172.582031 152.058594 L 168.066406 147.832031 L 169.65625 150.34375 Z M 165.621094 147.449219 " fill-opacity="1" fill-rule="nonzero"/><g clip-path="url(#995d143cd7)"><path fill="#404040" d="M 186.890625 88.570312 L 174.011719 96.875 C 174.011719 96.875 181.554688 106.367188 179.941406 113.910156 C 179.941406 113.910156 164.09375 117.386719 165.957031 101.195312 L 153.707031 106.195312 C 153.707031 106.195312 157.992188 112.808594 159.6875 121.878906 C 159.6875 121.878906 173.671875 114.84375 186.890625 124.84375 L 186.890625 114.320312 C 185.988281 111.242188 183.019531 101.722656 180.046875 99.015625 L 186.890625 93.613281 Z M 161.488281 116.621094 L 158.582031 108.613281 L 162.1875 106.707031 C 163.460938 114.460938 161.488281 116.621094 161.488281 116.621094 Z M 161.488281 116.621094 " fill-opacity="1" fill-rule="nonzero"/></g><path fill="#404040" d="M 191.097656 147.664062 C 191.085938 147.59375 191.074219 147.519531 191.066406 147.449219 C 191.066406 147.449219 198.382812 151.863281 203.855469 145.917969 C 205.011719 144.664062 206.527344 143.78125 208.210938 143.496094 C 210.921875 143.035156 214.566406 143.550781 216.109375 148.855469 L 212.421875 148.855469 C 215.394531 148.941406 218.03125 149.363281 220.078125 149.820312 C 219.300781 147.597656 219.210938 145.316406 219.605469 143.742188 C 219.605469 143.742188 219.480469 142.734375 218.851562 141.246094 C 210.128906 134.753906 203.976562 141.367188 203.585938 141.367188 C 192.429688 141.367188 190.28125 144.929688 190.28125 144.929688 C 190.484375 146.101562 190.785156 146.992188 191.097656 147.664062 Z M 191.097656 147.664062 " fill-opacity="1" fill-rule="nonzero"/><path fill="#404040" d="M 206.054688 165.097656 C 206.238281 165.097656 209.691406 165.175781 212.738281 171.03125 C 212.738281 171.03125 216.636719 163.148438 222.230469 162.046875 C 222.230469 162.046875 222.3125 161.789062 222.417969 161.355469 C 221.394531 160.105469 219.683594 159.003906 216.871094 159.269531 C 216.871094 159.269531 211.433594 164.941406 206.054688 165.097656 Z M 206.054688 165.097656 " fill-opacity="1" fill-rule="nonzero"/><path fill="#231f20" d="M 206.046875 165.097656 L 207.785156 167.675781 C 207.316406 166.777344 206.742188 165.910156 206.046875 165.097656 Z M 206.046875 165.097656 " fill-opacity="1" fill-rule="nonzero"/><path fill="#404040" d="M 189.433594 182.8125 C 189.433594 182.8125 190.695312 182.949219 192.554688 183.4375 C 195.832031 182.015625 199.84375 182.34375 203.164062 183.742188 C 203.164062 183.742188 200.113281 180.015625 193.839844 180.183594 C 193.839844 180.183594 196.636719 177.21875 203.160156 179.25 C 203.035156 179.164062 198.273438 175.234375 194.265625 175.648438 C 194.265625 175.648438 200.492188 173.445312 205.703125 175.183594 C 205.550781 175.058594 199.488281 170.222656 190.914062 172.40625 C 189.015625 174.226562 187.976562 177.148438 189.433594 182.8125 Z M 189.433594 182.8125 " fill-opacity="1" fill-rule="nonzero"/><path fill="#404040" d="M 194.179688 134.039062 C 203.59375 130.386719 211.382812 133.683594 215.203125 135.984375 C 213.472656 134.300781 211.070312 132.640625 207.738281 131.367188 L 211.808594 129.25 C 211.808594 129.25 211.253906 128.761719 210.222656 128.160156 C 199.1875 127.367188 194.179688 134.039062 194.179688 134.039062 Z M 194.179688 134.039062 " fill-opacity="1" fill-rule="nonzero"/><path fill="#ff914d" d="M 208.164062 147.449219 C 208.164062 147.449219 209.433594 150.324219 206.511719 151.890625 C 203.585938 153.457031 201.203125 152.058594 201.203125 152.058594 L 205.71875 147.832031 L 204.128906 150.34375 Z M 208.164062 147.449219 " fill-opacity="1" fill-rule="nonzero"/><g clip-path="url(#92e83818b8)"><path fill="#5b5b5b" d="M 186.890625 93.613281 L 193.734375 99.015625 C 190.765625 101.71875 187.792969 111.242188 186.890625 114.320312 L 186.890625 124.84375 C 200.113281 114.839844 214.097656 121.875 214.097656 121.875 C 215.792969 112.808594 220.078125 106.195312 220.078125 106.195312 L 207.824219 101.195312 C 209.691406 117.382812 193.839844 113.910156 193.839844 113.910156 C 192.230469 106.367188 199.773438 96.875 199.773438 96.875 L 186.890625 88.570312 Z M 211.59375 106.707031 L 215.203125 108.613281 L 212.292969 116.621094 C 212.296875 116.621094 210.324219 114.460938 211.59375 106.707031 Z M 211.59375 106.707031 " fill-opacity="1" fill-rule="nonzero"/></g><path fill="#404040" d="M 178.097656 203.695312 C 176.605469 206.167969 175.890625 208.632812 175.898438 211.519531 C 174.871094 210.308594 173.964844 209.035156 173.167969 207.695312 C 174.382812 206.082031 176.007812 204.53125 178.097656 203.695312 Z M 178.097656 203.695312 " fill-opacity="1" fill-rule="nonzero"/><path fill="#404040" d="M 180.800781 192.492188 C 180.800781 192.492188 179.039062 194.800781 175.21875 198.09375 C 174.652344 198.582031 174.042969 199.09375 173.382812 199.621094 C 172.78125 200.101562 172.136719 200.601562 171.457031 201.109375 C 172.390625 199.320312 173.085938 197.40625 173.523438 195.433594 C 175.699219 194.621094 180.800781 192.492188 180.800781 192.492188 Z M 180.800781 192.492188 " fill-opacity="1" fill-rule="nonzero"/><path fill="#404040" d="M 196.597656 203.695312 C 198.089844 206.167969 198.804688 208.632812 198.796875 211.519531 C 199.824219 210.308594 200.730469 209.035156 201.527344 207.695312 C 200.3125 206.082031 198.6875 204.53125 196.597656 203.695312 Z M 196.597656 203.695312 " fill-opacity="1" fill-rule="nonzero"/><path fill="#404040" d="M 193.894531 192.492188 C 193.894531 192.492188 195.65625 194.800781 199.476562 198.09375 C 200.042969 198.582031 200.652344 199.09375 201.3125 199.621094 C 201.914062 200.101562 202.558594 200.601562 203.238281 201.109375 C 202.304688 199.320312 201.609375 197.40625 201.171875 195.433594 C 198.996094 194.621094 193.894531 192.492188 193.894531 192.492188 Z M 193.894531 192.492188 " fill-opacity="1" fill-rule="nonzero"/><g fill="#ffffff" fill-opacity="1"><g transform="translate(75.005089, 260.805972)"><g><path d="M 21.328125 -22.5625 C 21.648438 -22.5625 21.828125 -22.441406 21.859375 -22.203125 C 21.898438 -21.960938 21.835938 -21.765625 21.671875 -21.609375 L 13.953125 -13.234375 L 21.328125 -1.09375 C 21.460938 -0.863281 21.488281 -0.625 21.40625 -0.375 C 21.332031 -0.125 21.132812 0 20.8125 0 L 16.640625 0 C 16.222656 0 15.890625 -0.0859375 15.640625 -0.265625 C 15.390625 -0.453125 15.148438 -0.726562 14.921875 -1.09375 C 14.921875 -1.09375 14.753906 -1.375 14.421875 -1.9375 C 14.085938 -2.5 13.660156 -3.207031 13.140625 -4.0625 C 12.628906 -4.914062 12.09375 -5.8125 11.53125 -6.75 C 10.976562 -7.6875 10.472656 -8.546875 10.015625 -9.328125 L 7.890625 -7.09375 L 7.890625 -1 C 7.890625 -0.601562 7.800781 -0.335938 7.625 -0.203125 C 7.457031 -0.0664062 7.222656 0 6.921875 0 L 3.53125 0 C 3.207031 0 2.957031 -0.0664062 2.78125 -0.203125 C 2.613281 -0.335938 2.53125 -0.601562 2.53125 -1 L 2.53125 -21.578125 C 2.53125 -21.960938 2.613281 -22.222656 2.78125 -22.359375 C 2.957031 -22.492188 3.207031 -22.5625 3.53125 -22.5625 L 6.921875 -22.5625 C 7.222656 -22.5625 7.457031 -22.492188 7.625 -22.359375 C 7.800781 -22.222656 7.890625 -21.960938 7.890625 -21.578125 L 7.890625 -13.921875 L 14.984375 -21.75 C 15.328125 -22.132812 15.601562 -22.363281 15.8125 -22.4375 C 16.019531 -22.519531 16.316406 -22.5625 16.703125 -22.5625 Z M 21.328125 -22.5625 "/></g></g></g><g fill="#ffffff" fill-opacity="1"><g transform="translate(97.433599, 260.805972)"><g><path d="M 12.34375 -4.703125 C 12.738281 -4.703125 13.003906 -4.613281 13.140625 -4.4375 C 13.273438 -4.269531 13.34375 -4.023438 13.34375 -3.703125 L 13.34375 -1 C 13.34375 -0.695312 13.273438 -0.453125 13.140625 -0.265625 C 13.003906 -0.0859375 12.738281 0 12.34375 0 L 2.640625 0 C 2.253906 0 1.988281 -0.0859375 1.84375 -0.265625 C 1.707031 -0.453125 1.640625 -0.695312 1.640625 -1 L 1.640625 -3.703125 C 1.640625 -4.023438 1.707031 -4.269531 1.84375 -4.4375 C 1.988281 -4.613281 2.253906 -4.703125 2.640625 -4.703125 L 4.796875 -4.703125 L 4.796875 -17.796875 L 2.703125 -17.796875 C 2.316406 -17.796875 2.054688 -17.882812 1.921875 -18.0625 C 1.785156 -18.25 1.71875 -18.492188 1.71875 -18.796875 L 1.71875 -21.578125 C 1.71875 -21.890625 1.785156 -22.128906 1.921875 -22.296875 C 2.054688 -22.472656 2.316406 -22.5625 2.703125 -22.5625 L 12.25 -22.5625 C 12.632812 -22.5625 12.894531 -22.472656 13.03125 -22.296875 C 13.164062 -22.128906 13.234375 -21.890625 13.234375 -21.578125 L 13.234375 -18.796875 C 13.234375 -18.492188 13.164062 -18.25 13.03125 -18.0625 C 12.894531 -17.882812 12.632812 -17.796875 12.25 -17.796875 L 10.1875 -17.796875 L 10.1875 -4.703125 Z M 12.34375 -4.703125 "/></g></g></g><g fill="#ffffff" fill-opacity="1"><g transform="translate(112.660295, 260.805972)"><g><path d="M 19.859375 -22.5625 C 20.179688 -22.5625 20.425781 -22.492188 20.59375 -22.359375 C 20.769531 -22.222656 20.859375 -21.960938 20.859375 -21.578125 L 20.859375 -1 C 20.859375 -0.695312 20.785156 -0.453125 20.640625 -0.265625 C 20.503906 -0.0859375 20.242188 0 19.859375 0 L 16.734375 0 C 16.296875 0 15.984375 -0.109375 15.796875 -0.328125 C 15.617188 -0.546875 15.414062 -0.828125 15.1875 -1.171875 L 7.921875 -12.9375 L 7.921875 -1 C 7.921875 -0.601562 7.832031 -0.335938 7.65625 -0.203125 C 7.488281 -0.0664062 7.242188 0 6.921875 0 L 3.53125 0 C 3.238281 0 3 -0.0664062 2.8125 -0.203125 C 2.625 -0.335938 2.53125 -0.601562 2.53125 -1 L 2.53125 -21.578125 C 2.53125 -21.890625 2.597656 -22.128906 2.734375 -22.296875 C 2.878906 -22.472656 3.144531 -22.5625 3.53125 -22.5625 L 6.75 -22.5625 C 7.1875 -22.5625 7.492188 -22.453125 7.671875 -22.234375 C 7.859375 -22.023438 8.066406 -21.75 8.296875 -21.40625 L 15.578125 -9.671875 L 15.578125 -21.578125 C 15.578125 -21.960938 15.664062 -22.222656 15.84375 -22.359375 C 16.03125 -22.492188 16.269531 -22.5625 16.5625 -22.5625 Z M 19.859375 -22.5625 "/></g></g></g><g fill="#ffffff" fill-opacity="1"><g transform="translate(136.049053, 260.805972)"><g><path d="M 19.3125 -12.59375 C 19.695312 -12.59375 19.957031 -12.503906 20.09375 -12.328125 C 20.226562 -12.160156 20.296875 -11.914062 20.296875 -11.59375 L 20.296875 -6.625 C 20.234375 -5.382812 19.90625 -4.3125 19.3125 -3.40625 C 18.71875 -2.507812 17.960938 -1.773438 17.046875 -1.203125 C 16.128906 -0.628906 15.148438 -0.203125 14.109375 0.078125 C 13.066406 0.367188 12.054688 0.515625 11.078125 0.515625 C 10.066406 0.515625 9.023438 0.375 7.953125 0.09375 C 6.878906 -0.175781 5.878906 -0.601562 4.953125 -1.1875 C 4.023438 -1.769531 3.273438 -2.535156 2.703125 -3.484375 C 2.140625 -4.429688 1.859375 -5.578125 1.859375 -6.921875 L 1.859375 -15.359375 C 1.859375 -16.710938 2.140625 -17.878906 2.703125 -18.859375 C 3.273438 -19.847656 4.023438 -20.648438 4.953125 -21.265625 C 5.878906 -21.878906 6.878906 -22.332031 7.953125 -22.625 C 9.023438 -22.925781 10.066406 -23.078125 11.078125 -23.078125 C 12.148438 -23.078125 13.226562 -22.921875 14.3125 -22.609375 C 15.40625 -22.304688 16.398438 -21.859375 17.296875 -21.265625 C 18.203125 -20.671875 18.925781 -19.929688 19.46875 -19.046875 C 20.019531 -18.171875 20.296875 -17.160156 20.296875 -16.015625 C 20.296875 -15.609375 20.226562 -15.347656 20.09375 -15.234375 C 19.957031 -15.117188 19.695312 -15.0625 19.3125 -15.0625 L 15.984375 -15.0625 C 15.503906 -15.0625 15.238281 -15.195312 15.1875 -15.46875 C 15.144531 -15.738281 15.078125 -15.988281 14.984375 -16.21875 C 14.804688 -16.75 14.394531 -17.226562 13.75 -17.65625 C 13.113281 -18.09375 12.222656 -18.3125 11.078125 -18.3125 C 9.953125 -18.3125 9.039062 -17.96875 8.34375 -17.28125 C 7.65625 -16.59375 7.3125 -15.703125 7.3125 -14.609375 L 7.3125 -7.71875 C 7.3125 -6.625 7.65625 -5.769531 8.34375 -5.15625 C 9.039062 -4.550781 9.953125 -4.25 11.078125 -4.25 C 12.203125 -4.25 13.117188 -4.53125 13.828125 -5.09375 C 14.535156 -5.65625 14.890625 -6.597656 14.890625 -7.921875 L 11.796875 -7.921875 C 11.410156 -7.921875 11.144531 -8.007812 11 -8.1875 C 10.863281 -8.375 10.796875 -8.617188 10.796875 -8.921875 L 10.796875 -11.59375 C 10.796875 -11.914062 10.863281 -12.160156 11 -12.328125 C 11.144531 -12.503906 11.410156 -12.59375 11.796875 -12.59375 Z M 19.3125 -12.59375 "/></g></g></g><g fill="#ffffff" fill-opacity="1"><g transform="translate(158.203208, 260.805972)"><g/></g></g><g fill="#ffffff" fill-opacity="1"><g transform="translate(167.496983, 260.805972)"><g><path d="M 17.796875 -4.796875 C 18.191406 -4.796875 18.457031 -4.707031 18.59375 -4.53125 C 18.726562 -4.363281 18.796875 -4.125 18.796875 -3.8125 L 18.796875 -1 C 18.796875 -0.695312 18.726562 -0.453125 18.59375 -0.265625 C 18.457031 -0.0859375 18.191406 0 17.796875 0 L 3.53125 0 C 3.144531 0 2.878906 -0.0859375 2.734375 -0.265625 C 2.597656 -0.453125 2.53125 -0.695312 2.53125 -1 L 2.53125 -21.578125 C 2.53125 -21.960938 2.625 -22.222656 2.8125 -22.359375 C 3 -22.492188 3.238281 -22.5625 3.53125 -22.5625 L 6.921875 -22.5625 C 7.242188 -22.5625 7.488281 -22.492188 7.65625 -22.359375 C 7.832031 -22.222656 7.921875 -21.960938 7.921875 -21.578125 L 7.921875 -4.796875 Z M 17.796875 -4.796875 "/></g></g></g><g fill="#ffffff" fill-opacity="1"><g transform="translate(187.456299, 260.805972)"><g><path d="M 21.953125 -0.953125 C 22.046875 -0.753906 22.066406 -0.546875 22.015625 -0.328125 C 21.972656 -0.109375 21.753906 0 21.359375 0 L 17.765625 0 C 17.398438 0 17.125 -0.0664062 16.9375 -0.203125 C 16.757812 -0.335938 16.601562 -0.613281 16.46875 -1.03125 L 15.5 -3.734375 L 7.09375 -3.734375 L 6.140625 -1.03125 C 6.003906 -0.613281 5.847656 -0.335938 5.671875 -0.203125 C 5.503906 -0.0664062 5.222656 0 4.828125 0 L 1.234375 0 C 0.867188 0 0.65625 -0.109375 0.59375 -0.328125 C 0.539062 -0.546875 0.5625 -0.753906 0.65625 -0.953125 L 8.265625 -21.5 C 8.398438 -21.863281 8.578125 -22.128906 8.796875 -22.296875 C 9.015625 -22.472656 9.304688 -22.5625 9.671875 -22.5625 L 12.96875 -22.5625 C 13.351562 -22.5625 13.640625 -22.472656 13.828125 -22.296875 C 14.023438 -22.128906 14.207031 -21.863281 14.375 -21.5 Z M 11.3125 -16.125 L 8.75 -8.546875 L 13.890625 -8.546875 Z M 11.3125 -16.125 "/></g></g></g><g fill="#ffffff" fill-opacity="1"><g transform="translate(209.919108, 260.805972)"><g><path d="M 19.859375 -22.5625 C 20.179688 -22.5625 20.425781 -22.492188 20.59375 -22.359375 C 20.769531 -22.222656 20.859375 -21.960938 20.859375 -21.578125 L 20.859375 -1 C 20.859375 -0.695312 20.785156 -0.453125 20.640625 -0.265625 C 20.503906 -0.0859375 20.242188 0 19.859375 0 L 16.734375 0 C 16.296875 0 15.984375 -0.109375 15.796875 -0.328125 C 15.617188 -0.546875 15.414062 -0.828125 15.1875 -1.171875 L 7.921875 -12.9375 L 7.921875 -1 C 7.921875 -0.601562 7.832031 -0.335938 7.65625 -0.203125 C 7.488281 -0.0664062 7.242188 0 6.921875 0 L 3.53125 0 C 3.238281 0 3 -0.0664062 2.8125 -0.203125 C 2.625 -0.335938 2.53125 -0.601562 2.53125 -1 L 2.53125 -21.578125 C 2.53125 -21.890625 2.597656 -22.128906 2.734375 -22.296875 C 2.878906 -22.472656 3.144531 -22.5625 3.53125 -22.5625 L 6.75 -22.5625 C 7.1875 -22.5625 7.492188 -22.453125 7.671875 -22.234375 C 7.859375 -22.023438 8.066406 -21.75 8.296875 -21.40625 L 15.578125 -9.671875 L 15.578125 -21.578125 C 15.578125 -21.960938 15.664062 -22.222656 15.84375 -22.359375 C 16.03125 -22.492188 16.269531 -22.5625 16.5625 -22.5625 Z M 19.859375 -22.5625 "/></g></g></g><g fill="#ffffff" fill-opacity="1"><g transform="translate(233.307866, 260.805972)"><g><path d="M 19.921875 -6.6875 C 19.921875 -5.59375 19.65625 -4.597656 19.125 -3.703125 C 18.601562 -2.804688 17.914062 -2.046875 17.0625 -1.421875 C 16.207031 -0.796875 15.253906 -0.316406 14.203125 0.015625 C 13.148438 0.347656 12.085938 0.515625 11.015625 0.515625 C 9.984375 0.515625 8.925781 0.359375 7.84375 0.046875 C 6.769531 -0.253906 5.773438 -0.71875 4.859375 -1.34375 C 3.953125 -1.976562 3.21875 -2.78125 2.65625 -3.75 C 2.09375 -4.726562 1.8125 -5.890625 1.8125 -7.234375 L 1.8125 -15.328125 C 1.8125 -16.679688 2.09375 -17.84375 2.65625 -18.8125 C 3.21875 -19.78125 3.953125 -20.578125 4.859375 -21.203125 C 5.773438 -21.835938 6.769531 -22.304688 7.84375 -22.609375 C 8.925781 -22.921875 9.984375 -23.078125 11.015625 -23.078125 C 12.429688 -23.078125 13.789062 -22.835938 15.09375 -22.359375 C 16.394531 -21.878906 17.488281 -21.160156 18.375 -20.203125 C 19.269531 -19.242188 19.785156 -18.03125 19.921875 -16.5625 C 19.921875 -16.15625 19.84375 -15.890625 19.6875 -15.765625 C 19.53125 -15.640625 19.253906 -15.578125 18.859375 -15.578125 L 15.578125 -15.578125 C 15.203125 -15.578125 14.96875 -15.703125 14.875 -15.953125 C 14.789062 -16.203125 14.679688 -16.429688 14.546875 -16.640625 C 14.179688 -17.203125 13.734375 -17.613281 13.203125 -17.875 C 12.679688 -18.144531 11.953125 -18.28125 11.015625 -18.28125 C 9.890625 -18.28125 8.972656 -17.976562 8.265625 -17.375 C 7.554688 -16.769531 7.203125 -15.925781 7.203125 -14.84375 L 7.203125 -7.71875 C 7.203125 -6.625 7.554688 -5.773438 8.265625 -5.171875 C 8.972656 -4.578125 9.890625 -4.28125 11.015625 -4.28125 C 11.953125 -4.28125 12.75 -4.460938 13.40625 -4.828125 C 14.070312 -5.203125 14.472656 -5.800781 14.609375 -6.625 C 14.648438 -6.96875 14.722656 -7.257812 14.828125 -7.5 C 14.929688 -7.738281 15.164062 -7.859375 15.53125 -7.859375 L 18.890625 -7.859375 C 19.578125 -7.859375 19.921875 -7.46875 19.921875 -6.6875 Z M 19.921875 -6.6875 "/></g></g></g><g fill="#ffffff" fill-opacity="1"><g transform="translate(254.981903, 260.805972)"><g><path d="M 19.953125 -22.5625 C 20.273438 -22.5625 20.519531 -22.492188 20.6875 -22.359375 C 20.863281 -22.222656 20.953125 -21.960938 20.953125 -21.578125 L 20.953125 -1 C 20.953125 -0.601562 20.863281 -0.335938 20.6875 -0.203125 C 20.519531 -0.0664062 20.273438 0 19.953125 0 L 16.5625 0 C 16.269531 0 16.03125 -0.0664062 15.84375 -0.203125 C 15.664062 -0.335938 15.578125 -0.601562 15.578125 -1 L 15.578125 -8.75 L 7.921875 -8.75 L 7.921875 -1 C 7.921875 -0.601562 7.832031 -0.335938 7.65625 -0.203125 C 7.488281 -0.0664062 7.242188 0 6.921875 0 L 3.53125 0 C 3.238281 0 3 -0.0664062 2.8125 -0.203125 C 2.625 -0.335938 2.53125 -0.601562 2.53125 -1 L 2.53125 -21.578125 C 2.53125 -21.960938 2.625 -22.222656 2.8125 -22.359375 C 3 -22.492188 3.238281 -22.5625 3.53125 -22.5625 L 6.921875 -22.5625 C 7.242188 -22.5625 7.488281 -22.492188 7.65625 -22.359375 C 7.832031 -22.222656 7.921875 -21.960938 7.921875 -21.578125 L 7.921875 -13.828125 L 15.578125 -13.828125 L 15.578125 -21.578125 C 15.578125 -21.960938 15.664062 -22.222656 15.84375 -22.359375 C 16.03125 -22.492188 16.269531 -22.5625 16.5625 -22.5625 Z M 19.953125 -22.5625 "/></g></g></g><g fill="#ffffff" fill-opacity="1"><g transform="translate(278.473537, 260.805972)"><g><path d="M 18.890625 -4.796875 C 19.285156 -4.796875 19.550781 -4.707031 19.6875 -4.53125 C 19.820312 -4.363281 19.890625 -4.125 19.890625 -3.8125 L 19.890625 -1 C 19.890625 -0.695312 19.820312 -0.453125 19.6875 -0.265625 C 19.550781 -0.0859375 19.285156 0 18.890625 0 L 3.53125 0 C 3.144531 0 2.878906 -0.0859375 2.734375 -0.265625 C 2.597656 -0.453125 2.53125 -0.695312 2.53125 -1 L 2.53125 -21.578125 C 2.53125 -21.890625 2.597656 -22.128906 2.734375 -22.296875 C 2.878906 -22.472656 3.144531 -22.5625 3.53125 -22.5625 L 18.3125 -22.5625 C 18.695312 -22.5625 18.957031 -22.472656 19.09375 -22.296875 C 19.238281 -22.128906 19.3125 -21.890625 19.3125 -21.578125 L 19.3125 -18.71875 C 19.3125 -18.425781 19.238281 -18.1875 19.09375 -18 C 18.957031 -17.820312 18.695312 -17.734375 18.3125 -17.734375 L 7.953125 -17.734375 L 7.953125 -14 L 17.15625 -14 C 17.539062 -14 17.800781 -13.910156 17.9375 -13.734375 C 18.070312 -13.566406 18.140625 -13.320312 18.140625 -13 L 18.140625 -10.328125 C 18.140625 -10.023438 18.070312 -9.78125 17.9375 -9.59375 C 17.800781 -9.414062 17.539062 -9.328125 17.15625 -9.328125 L 7.953125 -9.328125 L 7.953125 -4.796875 Z M 18.890625 -4.796875 "/></g></g></g><g fill="#ff914d" fill-opacity="1"><g transform="translate(111.469048, 282.506818)"><g><path d="M 2.015625 -2.890625 L 2.015625 0 L 0.921875 0 L 0.921875 -8.0625 L 3.671875 -8.0625 C 4.804688 -8.0625 5.617188 -7.863281 6.109375 -7.46875 C 6.609375 -7.082031 6.859375 -6.441406 6.859375 -5.546875 C 6.859375 -4.835938 6.703125 -4.273438 6.390625 -3.859375 C 6.078125 -3.441406 5.601562 -3.160156 4.96875 -3.015625 L 7.078125 0 L 5.765625 0 L 3.8125 -2.890625 Z M 5.75 -5.546875 C 5.75 -6.085938 5.585938 -6.476562 5.265625 -6.71875 C 4.953125 -6.957031 4.421875 -7.078125 3.671875 -7.078125 L 2.015625 -7.078125 L 2.015625 -3.859375 L 3.671875 -3.859375 C 4.398438 -3.859375 4.925781 -3.988281 5.25 -4.25 C 5.582031 -4.519531 5.75 -4.953125 5.75 -5.546875 Z M 5.75 -5.546875 "/></g></g></g><g fill="#ff914d" fill-opacity="1"><g transform="translate(123.813377, 282.506818)"><g><path d="M 2.015625 -8.0625 L 2.015625 0 L 0.921875 0 L 0.921875 -8.0625 Z M 2.015625 -8.0625 "/></g></g></g><g fill="#ff914d" fill-opacity="1"><g transform="translate(131.65829, 282.506818)"><g><path d="M 7.765625 -4.046875 C 7.765625 -2.585938 7.484375 -1.53125 6.921875 -0.875 C 6.359375 -0.21875 5.441406 0.109375 4.171875 0.109375 C 2.816406 0.109375 1.878906 -0.191406 1.359375 -0.796875 C 0.835938 -1.398438 0.578125 -2.484375 0.578125 -4.046875 C 0.578125 -5.503906 0.859375 -6.554688 1.421875 -7.203125 C 1.992188 -7.859375 2.910156 -8.1875 4.171875 -8.1875 C 5.535156 -8.1875 6.472656 -7.882812 6.984375 -7.28125 C 7.503906 -6.675781 7.765625 -5.597656 7.765625 -4.046875 Z M 2.078125 -1.71875 C 2.234375 -1.425781 2.46875 -1.21875 2.78125 -1.09375 C 3.101562 -0.976562 3.566406 -0.921875 4.171875 -0.921875 C 5.128906 -0.921875 5.78125 -1.148438 6.125 -1.609375 C 6.476562 -2.066406 6.65625 -2.878906 6.65625 -4.046875 C 6.65625 -4.628906 6.625 -5.109375 6.5625 -5.484375 C 6.507812 -5.859375 6.414062 -6.160156 6.28125 -6.390625 C 6.125 -6.679688 5.890625 -6.890625 5.578125 -7.015625 C 5.265625 -7.140625 4.796875 -7.203125 4.171875 -7.203125 C 3.210938 -7.203125 2.554688 -6.96875 2.203125 -6.5 C 1.859375 -6.039062 1.6875 -5.222656 1.6875 -4.046875 C 1.6875 -3.460938 1.710938 -2.984375 1.765625 -2.609375 C 1.828125 -2.242188 1.929688 -1.945312 2.078125 -1.71875 Z M 2.078125 -1.71875 "/></g></g></g><g fill="#ff914d" fill-opacity="1"><g transform="translate(144.902503, 282.506818)"><g/></g></g><g fill="#ff914d" fill-opacity="1"><g transform="translate(152.001799, 282.506818)"><g><path d="M 3.265625 0 L 0.921875 0 L 0.921875 -8.0625 L 3.265625 -8.0625 C 4.085938 -8.0625 4.738281 -7.992188 5.21875 -7.859375 C 5.707031 -7.722656 6.097656 -7.503906 6.390625 -7.203125 C 6.679688 -6.898438 6.894531 -6.492188 7.03125 -5.984375 C 7.164062 -5.472656 7.234375 -4.820312 7.234375 -4.03125 C 7.234375 -2.632812 6.914062 -1.613281 6.28125 -0.96875 C 5.65625 -0.320312 4.648438 0 3.265625 0 Z M 5.5625 -6.421875 C 5.363281 -6.648438 5.085938 -6.816406 4.734375 -6.921875 C 4.390625 -7.023438 3.898438 -7.078125 3.265625 -7.078125 L 2.015625 -7.078125 L 2.015625 -1.03125 L 3.265625 -1.03125 C 4.328125 -1.03125 5.066406 -1.253906 5.484375 -1.703125 C 5.898438 -2.160156 6.109375 -2.9375 6.109375 -4.03125 C 6.109375 -4.644531 6.0625 -5.140625 5.96875 -5.515625 C 5.882812 -5.890625 5.75 -6.191406 5.5625 -6.421875 Z M 5.5625 -6.421875 "/></g></g></g><g fill="#ff914d" fill-opacity="1"><g transform="translate(164.693227, 282.506818)"><g><path d="M 1.265625 0 L 0.109375 0 L 3.296875 -8.0625 L 4.421875 -8.0625 L 7.578125 0 L 6.421875 0 L 5.6875 -1.9375 L 2 -1.9375 Z M 3.828125 -7.0625 C 3.742188 -6.757812 3.644531 -6.441406 3.53125 -6.109375 C 3.414062 -5.773438 3.296875 -5.441406 3.171875 -5.109375 L 2.359375 -2.90625 L 5.328125 -2.90625 L 4.5 -5.109375 C 4.332031 -5.578125 4.195312 -5.957031 4.09375 -6.25 C 4 -6.539062 3.910156 -6.8125 3.828125 -7.0625 Z M 3.828125 -7.0625 "/></g></g></g><g fill="#ff914d" fill-opacity="1"><g transform="translate(177.281808, 282.506818)"><g><path d="M 4.03125 -3.375 L 2.078125 -3.84375 C 1.535156 -3.96875 1.144531 -4.1875 0.90625 -4.5 C 0.664062 -4.820312 0.546875 -5.257812 0.546875 -5.8125 C 0.546875 -6.625 0.78125 -7.222656 1.25 -7.609375 C 1.71875 -7.992188 2.445312 -8.1875 3.4375 -8.1875 C 3.84375 -8.1875 4.210938 -8.164062 4.546875 -8.125 C 4.878906 -8.09375 5.1875 -8.035156 5.46875 -7.953125 L 5.46875 -6.96875 C 5.101562 -7.050781 4.757812 -7.109375 4.4375 -7.140625 C 4.113281 -7.179688 3.773438 -7.203125 3.421875 -7.203125 C 2.765625 -7.203125 2.300781 -7.101562 2.03125 -6.90625 C 1.769531 -6.71875 1.640625 -6.378906 1.640625 -5.890625 C 1.640625 -5.578125 1.695312 -5.34375 1.8125 -5.1875 C 1.9375 -5.03125 2.144531 -4.914062 2.4375 -4.84375 L 4.375 -4.390625 C 5.0625 -4.222656 5.515625 -3.988281 5.734375 -3.6875 C 5.960938 -3.394531 6.078125 -2.941406 6.078125 -2.328125 C 6.078125 -1.441406 5.847656 -0.8125 5.390625 -0.4375 C 4.929688 -0.0703125 4.207031 0.109375 3.21875 0.109375 C 2.695312 0.109375 2.191406 0.0703125 1.703125 0 C 1.222656 -0.0703125 0.835938 -0.160156 0.546875 -0.265625 L 0.546875 -1.296875 C 0.953125 -1.179688 1.378906 -1.085938 1.828125 -1.015625 C 2.285156 -0.953125 2.75 -0.921875 3.21875 -0.921875 C 3.851562 -0.921875 4.300781 -1.015625 4.5625 -1.203125 C 4.820312 -1.390625 4.953125 -1.753906 4.953125 -2.296875 C 4.953125 -2.628906 4.890625 -2.867188 4.765625 -3.015625 C 4.640625 -3.171875 4.394531 -3.289062 4.03125 -3.375 Z M 4.03125 -3.375 "/></g></g></g><g fill="#ff914d" fill-opacity="1"><g transform="translate(188.661972, 282.506818)"><g/></g></g><g fill="#ff914d" fill-opacity="1"><g transform="translate(195.761268, 282.506818)"><g><path d="M 7.765625 -4.046875 C 7.765625 -2.585938 7.484375 -1.53125 6.921875 -0.875 C 6.359375 -0.21875 5.441406 0.109375 4.171875 0.109375 C 2.816406 0.109375 1.878906 -0.191406 1.359375 -0.796875 C 0.835938 -1.398438 0.578125 -2.484375 0.578125 -4.046875 C 0.578125 -5.503906 0.859375 -6.554688 1.421875 -7.203125 C 1.992188 -7.859375 2.910156 -8.1875 4.171875 -8.1875 C 5.535156 -8.1875 6.472656 -7.882812 6.984375 -7.28125 C 7.503906 -6.675781 7.765625 -5.597656 7.765625 -4.046875 Z M 2.078125 -1.71875 C 2.234375 -1.425781 2.46875 -1.21875 2.78125 -1.09375 C 3.101562 -0.976562 3.566406 -0.921875 4.171875 -0.921875 C 5.128906 -0.921875 5.78125 -1.148438 6.125 -1.609375 C 6.476562 -2.066406 6.65625 -2.878906 6.65625 -4.046875 C 6.65625 -4.628906 6.625 -5.109375 6.5625 -5.484375 C 6.507812 -5.859375 6.414062 -6.160156 6.28125 -6.390625 C 6.125 -6.679688 5.890625 -6.890625 5.578125 -7.015625 C 5.265625 -7.140625 4.796875 -7.203125 4.171875 -7.203125 C 3.210938 -7.203125 2.554688 -6.96875 2.203125 -6.5 C 1.859375 -6.039062 1.6875 -5.222656 1.6875 -4.046875 C 1.6875 -3.460938 1.710938 -2.984375 1.765625 -2.609375 C 1.828125 -2.242188 1.929688 -1.945312 2.078125 -1.71875 Z M 2.078125 -1.71875 "/></g></g></g><g fill="#ff914d" fill-opacity="1"><g transform="translate(209.005481, 282.506818)"><g><path d="M 4.03125 -3.375 L 2.078125 -3.84375 C 1.535156 -3.96875 1.144531 -4.1875 0.90625 -4.5 C 0.664062 -4.820312 0.546875 -5.257812 0.546875 -5.8125 C 0.546875 -6.625 0.78125 -7.222656 1.25 -7.609375 C 1.71875 -7.992188 2.445312 -8.1875 3.4375 -8.1875 C 3.84375 -8.1875 4.210938 -8.164062 4.546875 -8.125 C 4.878906 -8.09375 5.1875 -8.035156 5.46875 -7.953125 L 5.46875 -6.96875 C 5.101562 -7.050781 4.757812 -7.109375 4.4375 -7.140625 C 4.113281 -7.179688 3.773438 -7.203125 3.421875 -7.203125 C 2.765625 -7.203125 2.300781 -7.101562 2.03125 -6.90625 C 1.769531 -6.71875 1.640625 -6.378906 1.640625 -5.890625 C 1.640625 -5.578125 1.695312 -5.34375 1.8125 -5.1875 C 1.9375 -5.03125 2.144531 -4.914062 2.4375 -4.84375 L 4.375 -4.390625 C 5.0625 -4.222656 5.515625 -3.988281 5.734375 -3.6875 C 5.960938 -3.394531 6.078125 -2.941406 6.078125 -2.328125 C 6.078125 -1.441406 5.847656 -0.8125 5.390625 -0.4375 C 4.929688 -0.0703125 4.207031 0.109375 3.21875 0.109375 C 2.695312 0.109375 2.191406 0.0703125 1.703125 0 C 1.222656 -0.0703125 0.835938 -0.160156 0.546875 -0.265625 L 0.546875 -1.296875 C 0.953125 -1.179688 1.378906 -1.085938 1.828125 -1.015625 C 2.285156 -0.953125 2.75 -0.921875 3.21875 -0.921875 C 3.851562 -0.921875 4.300781 -1.015625 4.5625 -1.203125 C 4.820312 -1.390625 4.953125 -1.753906 4.953125 -2.296875 C 4.953125 -2.628906 4.890625 -2.867188 4.765625 -3.015625 C 4.640625 -3.171875 4.394531 -3.289062 4.03125 -3.375 Z M 4.03125 -3.375 "/></g></g></g><g fill="#ff914d" fill-opacity="1"><g transform="translate(220.385645, 282.506818)"><g><path d="M 6.640625 -8.0625 L 6.640625 -7.078125 L 3.953125 -7.078125 L 3.953125 0 L 2.875 0 L 2.875 -7.078125 L 0.1875 -7.078125 L 0.1875 -8.0625 Z M 6.640625 -8.0625 "/></g></g></g><g fill="#ff914d" fill-opacity="1"><g transform="translate(232.112909, 282.506818)"><g><path d="M 2.015625 -2.890625 L 2.015625 0 L 0.921875 0 L 0.921875 -8.0625 L 3.671875 -8.0625 C 4.804688 -8.0625 5.617188 -7.863281 6.109375 -7.46875 C 6.609375 -7.082031 6.859375 -6.441406 6.859375 -5.546875 C 6.859375 -4.835938 6.703125 -4.273438 6.390625 -3.859375 C 6.078125 -3.441406 5.601562 -3.160156 4.96875 -3.015625 L 7.078125 0 L 5.765625 0 L 3.8125 -2.890625 Z M 5.75 -5.546875 C 5.75 -6.085938 5.585938 -6.476562 5.265625 -6.71875 C 4.953125 -6.957031 4.421875 -7.078125 3.671875 -7.078125 L 2.015625 -7.078125 L 2.015625 -3.859375 L 3.671875 -3.859375 C 4.398438 -3.859375 4.925781 -3.988281 5.25 -4.25 C 5.582031 -4.519531 5.75 -4.953125 5.75 -5.546875 Z M 5.75 -5.546875 "/></g></g></g><g fill="#ff914d" fill-opacity="1"><g transform="translate(244.457238, 282.506818)"><g><path d="M 1.265625 0 L 0.109375 0 L 3.296875 -8.0625 L 4.421875 -8.0625 L 7.578125 0 L 6.421875 0 L 5.6875 -1.9375 L 2 -1.9375 Z M 3.828125 -7.0625 C 3.742188 -6.757812 3.644531 -6.441406 3.53125 -6.109375 C 3.414062 -5.773438 3.296875 -5.441406 3.171875 -5.109375 L 2.359375 -2.90625 L 5.328125 -2.90625 L 4.5 -5.109375 C 4.332031 -5.578125 4.195312 -5.957031 4.09375 -6.25 C 4 -6.539062 3.910156 -6.8125 3.828125 -7.0625 Z M 3.828125 -7.0625 "/></g></g></g><g fill="#ff914d" fill-opacity="1"><g transform="translate(257.045818, 282.506818)"><g><path d="M 4.03125 -3.375 L 2.078125 -3.84375 C 1.535156 -3.96875 1.144531 -4.1875 0.90625 -4.5 C 0.664062 -4.820312 0.546875 -5.257812 0.546875 -5.8125 C 0.546875 -6.625 0.78125 -7.222656 1.25 -7.609375 C 1.71875 -7.992188 2.445312 -8.1875 3.4375 -8.1875 C 3.84375 -8.1875 4.210938 -8.164062 4.546875 -8.125 C 4.878906 -8.09375 5.1875 -8.035156 5.46875 -7.953125 L 5.46875 -6.96875 C 5.101562 -7.050781 4.757812 -7.109375 4.4375 -7.140625 C 4.113281 -7.179688 3.773438 -7.203125 3.421875 -7.203125 C 2.765625 -7.203125 2.300781 -7.101562 2.03125 -6.90625 C 1.769531 -6.71875 1.640625 -6.378906 1.640625 -5.890625 C 1.640625 -5.578125 1.695312 -5.34375 1.8125 -5.1875 C 1.9375 -5.03125 2.144531 -4.914062 2.4375 -4.84375 L 4.375 -4.390625 C 5.0625 -4.222656 5.515625 -3.988281 5.734375 -3.6875 C 5.960938 -3.394531 6.078125 -2.941406 6.078125 -2.328125 C 6.078125 -1.441406 5.847656 -0.8125 5.390625 -0.4375 C 4.929688 -0.0703125 4.207031 0.109375 3.21875 0.109375 C 2.695312 0.109375 2.191406 0.0703125 1.703125 0 C 1.222656 -0.0703125 0.835938 -0.160156 0.546875 -0.265625 L 0.546875 -1.296875 C 0.953125 -1.179688 1.378906 -1.085938 1.828125 -1.015625 C 2.285156 -0.953125 2.75 -0.921875 3.21875 -0.921875 C 3.851562 -0.921875 4.300781 -1.015625 4.5625 -1.203125 C 4.820312 -1.390625 4.953125 -1.753906 4.953125 -2.296875 C 4.953125 -2.628906 4.890625 -2.867188 4.765625 -3.015625 C 4.640625 -3.171875 4.394531 -3.289062 4.03125 -3.375 Z M 4.03125 -3.375 "/></g></g></g></svg>